<svg width="485.40000000000003" height="138.91978262269828" viewBox="0 0 389.77777777777777 111.55303700050943" class="css-1j8o68f"><defs id="SvgjsDefs1022"><linearGradient id="SvgjsLinearGradient1029"><stop id="SvgjsStop1030" stop-color="#006838" offset="0"></stop><stop id="SvgjsStop1031" stop-color="#96cf24" offset="1"></stop></linearGradient><linearGradient id="SvgjsLinearGradient1032"><stop id="SvgjsStop1033" stop-color="#006838" offset="0"></stop><stop id="SvgjsStop1034" stop-color="#96cf24" offset="1"></stop></linearGradient><linearGradient id="SvgjsLinearGradient1035"><stop id="SvgjsStop1036" stop-color="#006838" offset="0"></stop><stop id="SvgjsStop1037" stop-color="#96cf24" offset="1"></stop></linearGradient></defs><g id="SvgjsG1023" featurekey="symbolFeature-0" transform="matrix(1.3391554273848552,0,0,1.3391554273848552,1.4082569400672114,-8.011325831013039)" fill="url(#SvgjsLinearGradient1029)"><g xmlns="http://www.w3.org/2000/svg"><path d="M38.5,83.1c-0.2,0-0.4-0.1-0.5-0.3L35.3,75c-0.4-0.8-0.8-1.7-1.2-2.5c-0.9-2-1.7-3.8-3.1-5.4c-0.6-0.6-1.2-1.2-2-1.8   c-0.8-0.7-1.6-1.3-2.2-2.1c-0.2-0.2-1.5-1.1-1.9-1.4c-1.2-0.7-2-1.2-2.8-1.7c-0.5-0.3-1.1-0.6-1.8-1.1l-4.6-2.7   c-0.2-0.1-0.3-0.2-0.4-0.3c-0.7-0.5-1.5-1-1.1-2.6c0.2-0.8,1.6-1.3,2.8-1.1c0,0,0.1,0,0.1,0l6.9,3l-9-8.8c-0.7-0.7-1.4-2.3-1-3.1   c0.2-0.4,0.8-0.7,1.4-0.9c0.7-0.2,1.4-0.1,1.9,0.3l7.9,6.5l-7.3-11.1c-0.9-1.3-0.6-2.7-0.1-3.3c0.3-0.3,0.9-0.5,1.6-0.4   c0.7,0,1.3,0.3,1.7,0.8l7.9,9.9l-3.6-9.5c-0.4-0.6-0.2-1.4-0.2-1.8c0.1-0.3,0.3-1.1,0.7-1.4c0.7-0.4,2.2-0.2,3,0.9l0.5,0.8l2.1,3.4   c2.1,3.4,4.1,6.8,6.2,10.2l1.8,2.4c0.1,0.1,0.1,0.2,0.1,0.2c-0.1-0.7-0.3-1.3-0.4-2c-0.3-1.3-0.6-2.5-0.7-3.6   c-0.2-1.7,0.3-2.9,1.5-3.6c0.4-0.2,1-0.6,1.7,0.1c0.2,0.2,0.5,0.4,0.7,0.6c0.3,0.2,0.5,0.4,0.8,0.6c0.3,0.3,0.6,0.7,0.7,1.2   c0.3,1.6,0.9,3.2,1.4,4.8c0.6,1.6,1.2,3.3,1.5,5c0,0.3,0.1,0.6,0,1c-0.2,0.9-0.1,1.8,0,2.7c0.1,1,0.2,2.1,0,3.1l0,0.1   c-1,4.2-1,4.2-0.3,8.6l0,0.1c2.5,1.6,4.4,2.1,5.5,1.4c1.7-1,1.6-4.5,1.5-5.8c-0.4-1.1-5.5-13.6-1.7-31c1.2-5.6,3.6-9.2,7.1-10.5   c5.6-2.1,11.8,2.3,12.1,2.5c0.2,0.2,0.3,0.5,0.1,0.7L71,26.9c-2.7,3.8-2.8,3.9-6.6,6.2l-0.1,0.1c-0.8,0.5-1.4,1.2-2,2   c-0.6,0.8-1.2,1.6-2.1,2.1c-0.2,0.1-0.4,0.4-0.4,0.5c-1,1.4-1.7,3-2.4,4.5c-0.7,1.5-1.4,3.1-2.4,4.5c-0.1,0.2-0.2,0.5-0.2,0.8   c0,0.3,0.1,0.6,0.1,0.9c0,0.3,0.1,0.7,0.1,1c0,0.2,0,0.2,0,0.2c0,0,0.2,0.1,0.3,0.1c1.1,0.3,1.8-0.1,2.7-1.1c0.7-0.8,1.3-1.9,2-3   c0.7-1.2,1.4-2.3,2.3-3.4c0.1-0.2,0.4-0.2,0.6-0.2c0.2,0.1,0.3,0.3,0.3,0.5c0,0.4-0.1,0.7-0.1,1.1L63,44.4c0,0,0,0.1,0,0.1   c0,0.1-0.1,0.2-0.1,0.4l-0.4,3c-0.9,3.9-1.9,7.7-2.8,11.5l-1.2,4.9c-0.1,0.8,0.5,1.5,0.8,1.6c0.3,0,1.4-0.6,1.4-1.1   c0,0,0-0.1,0-0.1L66,53c0.1-0.2,0.3-0.3,0.5-0.3c0.3,0,0.6,0.3,0.6,0.6l-1.7,15.2c0,0.3,0.1,0.6,0.4,1c0.3,0.3,0.6,0.5,0.7,0.5h0   c0.2,0,1.1-0.5,1.3-1.5L71,52.7c0-0.2,0.2-0.4,0.5-0.4l0.1,0c0.3,0,0.5,0.2,0.5,0.5l1.3,12.9c0.1,0.5,0.5,0.8,0.7,0.9   c0.4,0.2,0.7,0.2,0.8,0.2c0.2-0.1,0.7-1.1,0.7-1.9L75.4,50c0-0.2,0.1-0.4,0.3-0.5l0.1-0.1c0.1-0.1,0.3-0.1,0.4,0   c0.1,0.1,0.2,0.2,0.3,0.3l3.6,9.1c0.5,0.7,1.2,0.9,1.4,0.8c0.8-0.4,0.7-0.8,0.6-1.5c0-0.2-0.1-0.3-0.1-0.5l-1.4-5.1   c-0.2-0.8-0.4-1.4-0.5-2c-0.3-1-0.5-1.8-0.8-3.2c-0.1-0.3-0.5-2.1-0.4-2.7c0.1-0.9,0-1.9-0.1-2.9c-0.1-0.9-0.2-1.9-0.1-2.8   c0.1-2.2,0.9-4.3,1.7-6.3c0.3-0.9,0.7-1.8,0.9-2.7l4.2-8.7c0.1-0.2,0.4-0.4,0.7-0.2c0.2,0.1,0.4,0.4,0.2,0.7l-4.1,8.6   c-0.3,0.9-0.6,1.8-0.9,2.7c-0.8,2-1.5,3.9-1.6,6c-0.1,0.8,0,1.7,0.1,2.7c0.1,1,0.2,2.1,0.1,3.1c0,0.3,0.2,1.8,0.4,2.3   c0.3,1.3,0.6,2.2,0.8,3.2c0.2,0.6,0.3,1.2,0.5,2l1.4,5.2c0,0.2,0.1,0.4,0.1,0.5c0.2,0.8,0.4,1.8-1.1,2.6c-0.7,0.4-2.1-0.2-2.7-1.2   c0,0,0-0.1,0-0.1l-2.7-7l0.2,12.6c0,1-0.7,2.6-1.5,2.8c-0.4,0.1-1,0-1.6-0.3c-0.6-0.4-1-0.9-1.2-1.6l-1-10.2l-2.7,13   c-0.3,1.5-1.5,2.4-2.2,2.4c0,0,0,0,0,0c-0.5,0-1.1-0.4-1.4-0.8c-0.5-0.5-0.7-1.2-0.7-1.7l1.4-12.6L61.6,65   c-0.2,0.7-0.8,1.2-1.1,1.4c-0.3,0.2-1,0.6-1.5,0.4c-0.8-0.2-1.7-1.4-1.5-2.7l0.2-1l1-4c0.9-3.8,1.8-7.6,2.8-11.4l0.4-3   c0-0.1,0-0.2,0.1-0.3c-0.4,0.6-0.7,1.1-1.1,1.7c-0.7,1.1-1.3,2.2-2,3.1c-1.1,1.4-2.2,1.8-3.7,1.5c-0.4-0.1-1.1-0.3-1.1-1.3   c0-0.3-0.1-0.6-0.1-0.9c-0.1-0.3-0.1-0.7-0.1-1c0-0.4,0.1-0.9,0.3-1.3c0.9-1.4,1.6-2.9,2.3-4.4c0.7-1.6,1.5-3.2,2.5-4.6   c0.1-0.2,0.4-0.5,0.7-0.7c0.8-0.5,1.3-1.2,1.9-1.9c0.6-0.8,1.3-1.6,2.2-2.2l0.1-0.1c3.6-2.2,3.7-2.2,6.2-5.7   c-1.5-0.9-6.4-3.8-10.8-2.1c-3.1,1.2-5.3,4.5-6.5,9.8c-3.9,17.7,1.6,30.3,1.6,30.4c0,0,0,0.1,0,0.1c0,0.2,0.7,5.3-1.9,6.9   c-1.5,1-3.8,0.5-6.8-1.5c-0.1-0.1-0.2-0.2-0.2-0.3l-0.1-0.3c-0.8-4.6-0.8-4.7,0.3-9l0-0.1c0.2-0.9,0.1-1.8,0-2.8c-0.1-1-0.2-2,0-3   c0-0.1,0-0.3,0-0.6c-0.3-1.7-0.9-3.3-1.5-4.9c-0.6-1.6-1.2-3.2-1.5-4.9c0-0.2-0.2-0.5-0.4-0.6c-0.2-0.2-0.5-0.4-0.7-0.6   c-0.3-0.2-0.5-0.4-0.8-0.6c-0.1-0.1-0.2-0.1-0.2-0.1c-0.1,0-0.2,0.1-0.3,0.2c-0.9,0.6-1.2,1.3-1.1,2.7c0.1,1.1,0.4,2.2,0.7,3.5   c0.3,1.3,0.6,2.7,0.8,4c0,0.2-0.1,0.4-0.3,0.5c-0.2,0.1-0.4,0-0.6-0.1c-0.2-0.3-0.5-0.6-0.7-0.8l-0.4-0.5c0,0,0-0.1-0.1-0.1   c-0.1-0.1-0.1-0.2-0.2-0.3l-1.8-2.4c-2.1-3.4-4.1-6.8-6.2-10.2L28,34.2c-0.5-0.6-1.5-0.7-1.7-0.6c-0.3,0.2-0.5,1.4-0.3,1.8   c0,0,0,0.1,0.1,0.1l4.5,12c0.1,0.2,0,0.4-0.2,0.6c-0.2,0.2-0.7,0.2-0.8,0l-9.5-12c-0.2-0.2-0.5-0.4-1-0.4c-0.4,0-0.7,0.1-0.8,0.2   c-0.2,0.2-0.4,1.1,0.2,2l8.8,13.4c0.1,0.2,0.1,0.5-0.1,0.6c0,0-0.1,0.1-0.1,0.1c-0.2,0.2-0.5,0.2-0.7,0.1l-10-8.2   c-0.4-0.3-0.9-0.2-1.1-0.1c-0.4,0.1-0.7,0.3-0.7,0.4c-0.1,0.2,0.3,1.3,0.8,1.8l10.7,10.4c0.1,0.1,0.2,0.4,0.1,0.6L26.2,57   c0,0.1-0.1,0.2-0.3,0.3c-0.1,0.1-0.3,0.1-0.4,0l-9-3.9c-0.8-0.2-1.5,0.2-1.6,0.4c-0.3,0.9,0,1.1,0.7,1.5c0.1,0.1,0.3,0.2,0.4,0.3   l4.6,2.7c0.7,0.4,1.3,0.7,1.8,1.1c0.9,0.5,1.7,1,2.9,1.7c0.2,0.1,1.8,1.2,2.2,1.6c0.6,0.7,1.4,1.3,2.1,2c0.7,0.6,1.5,1.2,2.1,1.9   c1.5,1.7,2.4,3.7,3.3,5.6c0.4,0.8,0.8,1.7,1.2,2.6l2.8,7.9c0.1,0.3,0,0.5-0.3,0.6C38.6,83.1,38.5,83.1,38.5,83.1z"></path></g></g><g id="SvgjsG1024" featurekey="nameFeature-0" transform="matrix(1.7263108031006864,0,0,1.7263108031006864,134.3873790764718,-8.128780408063328)" fill="url(#SvgjsLinearGradient1032)"><path d="M21.74 12.48 c0.12 -0.36 0.36 -0.48 0.68 -0.48 l3.38 0 c0.44 0 0.62 0.28 0.48 0.68 l-10.08 26.84 c-0.12 0.32 -0.42 0.48 -0.74 0.48 l-3.14 0 c-0.32 0 -0.58 -0.16 -0.7 -0.48 l-10.06 -26.84 c-0.14 -0.4 0.04 -0.68 0.48 -0.68 l3.38 0 c0.32 0 0.54 0.12 0.68 0.48 l7.82 21.8 z M54.120000000000005 39.32 c0.14 0.4 -0.04 0.68 -0.48 0.68 l-3.38 0 c-0.32 0 -0.56 -0.12 -0.68 -0.48 l-1.78 -4.98 l-12.08 0 l-1.78 4.98 c-0.14 0.36 -0.36 0.48 -0.68 0.48 l-3.38 0 c-0.44 0 -0.62 -0.28 -0.48 -0.68 l10.06 -26.84 c0.12 -0.32 0.38 -0.48 0.7 -0.48 l3.14 0 c0.32 0 0.62 0.16 0.74 0.48 z M37.12 30.66 l9.28 0 l-4.64 -12.94 z M87.24 12 c0.36 0 0.6 0.24 0.6 0.6 l0 26.8 c0 0.36 -0.24 0.6 -0.6 0.6 l-3.28 0 c-0.36 0 -0.6 -0.24 -0.6 -0.6 l0 -18.44 l-7.68 18.58 c-0.12 0.32 -0.38 0.46 -0.7 0.46 l-3.08 0 c-0.32 0 -0.58 -0.14 -0.7 -0.46 l-7.64 -18.52 l0 18.38 c0 0.36 -0.24 0.6 -0.6 0.6 l-3.28 0 c-0.36 0 -0.6 -0.24 -0.6 -0.6 l0 -26.8 c0 -0.36 0.24 -0.6 0.6 -0.6 l3.92 0 c0.32 0 0.6 0.12 0.72 0.4 l9.14 22.5 l9.1 -22.5 c0.12 -0.28 0.4 -0.4 0.72 -0.4 l3.96 0 z M108.20000000000002 40.52 c-7.92 0 -14.36 -6.4 -14.36 -14.4 c0 -8.04 6.44 -14.44 14.36 -14.44 c7.9 0 14.36 6.4 14.36 14.44 c0 8 -6.46 14.4 -14.36 14.4 z M108.20000000000002 36.24 c5.54 0 9.9 -4.46 9.9 -10.12 c0 -5.7 -4.36 -10.16 -9.9 -10.16 s-9.92 4.46 -9.92 10.16 c0 5.66 4.38 10.12 9.92 10.12 z M137.4 23.76 c5.4 1.08 10.54 2.76 10.54 8.74 c0 5.12 -3.34 8.1 -10.4 8.1 c-6.22 0 -9.74 -2.24 -10.18 -7.1 c-0.04 -0.4 0.2 -0.72 0.56 -0.72 l3.08 0 c0.36 0 0.54 0.28 0.6 0.6 c0.4 1.98 2.44 3.16 5.94 3.16 c3.82 0 6 -1.24 6 -3.94 c0 -3.08 -1.96 -3.92 -6.14 -4.84 c-5.04 -1.12 -9.46 -2.96 -9.46 -8.42 c0 -4.7 3.08 -7.68 9.38 -7.68 c5.76 0 9.28 2.18 9.76 6.94 c0.04 0.4 -0.2 0.64 -0.56 0.64 l-2.86 0 c-0.36 0 -0.54 -0.2 -0.6 -0.52 c-0.32 -1.8 -2.28 -3.06 -5.7 -3.06 c-3.16 0 -5.08 1.3 -5.08 3.68 c0 2.3 1.3 3.64 5.12 4.42 z"></path></g><g id="SvgjsG1025" featurekey="nameFeature-1" transform="matrix(1.3700206482087722,0,0,1.3700206482087722,134.92658908625324,55.99816102393143)" fill="url(#SvgjsLinearGradient1035)"><path d="M26.28 39.32 c0.14 0.4 -0.04 0.68 -0.48 0.68 l-3.38 0 c-0.32 0 -0.56 -0.12 -0.68 -0.48 l-1.78 -4.98 l-12.08 0 l-1.78 4.98 c-0.14 0.36 -0.36 0.48 -0.68 0.48 l-3.38 0 c-0.44 0 -0.62 -0.28 -0.48 -0.68 l10.06 -26.84 c0.12 -0.32 0.38 -0.48 0.7 -0.48 l3.14 0 c0.32 0 0.62 0.16 0.74 0.48 z M9.28 30.66 l9.28 0 l-4.64 -12.94 z M50.239999999999995 12 c0.36 0 0.6 0.24 0.6 0.6 l0 16.94 c0 7.7 -4.36 11.04 -10.3 11.04 c-5.88 0 -10.14 -3.16 -10.4 -10.44 c0 -0.4 0.24 -0.6 0.6 -0.6 l3.2 0 c0.36 0 0.6 0.2 0.6 0.6 c0.24 4.4 2.62 6.18 6 6.18 c3.36 0 5.82 -1.84 5.82 -6.78 l0 -13.52 l-11.56 0 c-0.36 0 -0.6 -0.24 -0.6 -0.6 l0 -2.82 c0 -0.36 0.24 -0.6 0.6 -0.6 l15.44 0 z M78.8 12 c0.36 0 0.6 0.24 0.6 0.6 l0 16.06 c0 8.04 -4.48 11.92 -11.48 11.92 c-6.98 0 -11.48 -3.88 -11.48 -11.92 l0 -16.06 c0 -0.36 0.24 -0.6 0.6 -0.6 l3.28 0 c0.36 0 0.6 0.24 0.6 0.6 l0 16.06 c0 5.1 2.74 7.66 7 7.66 c4.28 0 6.98 -2.56 6.98 -7.66 l0 -16.06 c0 -0.36 0.24 -0.6 0.6 -0.6 l3.3 0 z M93.3 12 c9.66 0 14.66 6.14 14.66 14 s-5 14 -14.66 14 l-7.2 0 c-0.36 0 -0.6 -0.24 -0.6 -0.6 l0 -26.8 c0 -0.36 0.24 -0.6 0.6 -0.6 l7.2 0 z M93.3 35.980000000000004 c6.76 0 10.12 -3.74 10.12 -9.98 s-3.36 -9.98 -10.12 -9.98 l-3.32 0 l0 19.96 l3.32 0 z M136.14 39.32 c0.14 0.4 -0.04 0.68 -0.48 0.68 l-3.38 0 c-0.32 0 -0.56 -0.12 -0.68 -0.48 l-1.78 -4.98 l-12.08 0 l-1.78 4.98 c-0.14 0.36 -0.36 0.48 -0.68 0.48 l-3.38 0 c-0.44 0 -0.62 -0.28 -0.48 -0.68 l10.06 -26.84 c0.12 -0.32 0.38 -0.48 0.7 -0.48 l3.14 0 c0.32 0 0.62 0.16 0.74 0.48 z M119.14 30.66 l9.28 0 l-4.64 -12.94 z M156.35999999999999 29.4 l5.22 9.9 c0.22 0.42 0.02 0.7 -0.44 0.7 l-3.34 0 c-0.32 0 -0.54 -0.14 -0.7 -0.46 l-4.96 -9.6 l-0.54 0 l-6.02 0 l0 9.46 c0 0.36 -0.24 0.6 -0.6 0.6 l-3.28 0 c-0.36 0 -0.6 -0.24 -0.6 -0.6 l0 -26.8 c0 -0.36 0.24 -0.6 0.6 -0.6 l9.9 0 c7.78 0 10.46 3.14 10.46 8.96 c0 4.44 -1.54 7.32 -5.7 8.44 z M145.57999999999998 16.02 l0 9.9 l6.34 0 c3.56 0 5.82 -0.92 5.82 -4.96 c0 -4.02 -2.26 -4.94 -5.82 -4.94 l-6.34 0 z M174.34 31.880000000000003 c-0.36 0 -0.6 -0.24 -0.6 -0.64 c0.06 -9.76 8.2 -6 8.2 -11.46 c0 -2.42 -1.52 -4.2 -4.96 -4.2 c-3.28 0 -5.38 1.38 -5.52 4.36 c-0.04 0.4 -0.28 0.6 -0.66 0.56 l-2.86 -0.32 c-0.36 -0.04 -0.58 -0.26 -0.58 -0.64 c0 -5.08 3.72 -7.86 9.4 -7.86 c5.76 0 9.26 3 9.26 8.06 c0 8.18 -7.9 4.8 -7.94 11.54 c0 0.4 -0.26 0.6 -0.62 0.6 l-3.12 0 z M175.84 40.52 c-1.78 0 -3.22 -1.44 -3.22 -3.22 c0 -1.8 1.44 -3.26 3.22 -3.26 c1.8 0 3.24 1.46 3.24 3.26 c0 1.78 -1.44 3.22 -3.24 3.22 z"></path></g></svg>